<mxfile host="app.diagrams.net" modified="2020-12-23T03:45:53.558Z" agent="5.0 (Macintosh; Intel Mac OS X 10_15_7) AppleWebKit/537.36 (KHTML, like Gecko) Chrome/87.0.4280.88 Safari/537.36" etag="0_ossiMN_P2jXaD_Eae_" version="14.1.1" type="github">
  <diagram id="HQro99ZrfNcyAtbycOjr" name="Page-1">
    <mxGraphModel dx="1426" dy="794" grid="1" gridSize="10" guides="1" tooltips="1" connect="1" arrows="1" fold="1" page="1" pageScale="1" pageWidth="827" pageHeight="1169" math="0" shadow="0">
      <root>
        <mxCell id="0" />
        <mxCell id="1" parent="0" />
        <mxCell id="Eh-v05lWzU1ELgXKNOy4-2" value="" style="aspect=fixed;html=1;points=[];align=center;image;fontSize=12;image=img/lib/azure2/compute/Virtual_Machines_Classic.svg;" vertex="1" parent="1">
          <mxGeometry x="110" y="220" width="59.3" height="55" as="geometry" />
        </mxCell>
        <mxCell id="Eh-v05lWzU1ELgXKNOy4-7" value="" style="aspect=fixed;html=1;points=[];align=center;image;fontSize=12;image=img/lib/mscae/Batch_Accounts.svg;" vertex="1" parent="1">
          <mxGeometry x="110.73" y="450" width="41.67" height="40" as="geometry" />
        </mxCell>
        <mxCell id="Eh-v05lWzU1ELgXKNOy4-8" value="" style="aspect=fixed;html=1;points=[];align=center;image;fontSize=12;image=img/lib/azure2/general/Browser.svg;" vertex="1" parent="1">
          <mxGeometry x="450" y="450" width="50" height="40" as="geometry" />
        </mxCell>
        <mxCell id="Eh-v05lWzU1ELgXKNOy4-19" style="edgeStyle=orthogonalEdgeStyle;rounded=0;orthogonalLoop=1;jettySize=auto;html=1;" edge="1" parent="1">
          <mxGeometry relative="1" as="geometry">
            <mxPoint x="450" y="243.5" as="sourcePoint" />
            <mxPoint x="169.29999999999995" y="243.5" as="targetPoint" />
          </mxGeometry>
        </mxCell>
        <mxCell id="Eh-v05lWzU1ELgXKNOy4-9" value="" style="verticalLabelPosition=bottom;html=1;verticalAlign=top;align=center;strokeColor=none;fillColor=#00BEF2;shape=mxgraph.azure.mobile;pointerEvents=1;" vertex="1" parent="1">
          <mxGeometry x="450" y="222.5" width="35" height="50" as="geometry" />
        </mxCell>
        <mxCell id="Eh-v05lWzU1ELgXKNOy4-11" value="&lt;h1&gt;BANKITミドル&lt;/h1&gt;&lt;p&gt;・&lt;/p&gt;" style="text;html=1;fillColor=none;spacing=5;spacingTop=-20;whiteSpace=wrap;overflow=hidden;rounded=0;strokeColor=#000000;" vertex="1" parent="1">
          <mxGeometry x="110.73" y="278" width="190" height="120" as="geometry" />
        </mxCell>
        <mxCell id="Eh-v05lWzU1ELgXKNOy4-12" value="&lt;h1&gt;BANKITアプリ&lt;/h1&gt;&lt;p&gt;・&lt;/p&gt;" style="text;html=1;fillColor=none;spacing=5;spacingTop=-20;whiteSpace=wrap;overflow=hidden;rounded=0;strokeColor=#000000;" vertex="1" parent="1">
          <mxGeometry x="450" y="278" width="190" height="120" as="geometry" />
        </mxCell>
        <mxCell id="Eh-v05lWzU1ELgXKNOy4-13" value="&lt;h1&gt;Batch&lt;/h1&gt;&lt;p&gt;・&lt;/p&gt;" style="text;html=1;fillColor=none;spacing=5;spacingTop=-20;whiteSpace=wrap;overflow=hidden;rounded=0;strokeColor=#000000;" vertex="1" parent="1">
          <mxGeometry x="110" y="500" width="190" height="120" as="geometry" />
        </mxCell>
        <mxCell id="Eh-v05lWzU1ELgXKNOy4-14" value="&lt;h1&gt;WalletStation&lt;/h1&gt;&lt;p&gt;・アプリユーザー詳細に弁護士フラグON/OFFを設ける&lt;/p&gt;" style="text;html=1;fillColor=none;spacing=5;spacingTop=-20;whiteSpace=wrap;overflow=hidden;rounded=0;strokeColor=#000000;" vertex="1" parent="1">
          <mxGeometry x="448.75" y="500" width="190" height="120" as="geometry" />
        </mxCell>
        <mxCell id="Eh-v05lWzU1ELgXKNOy4-20" value="" style="endArrow=classic;html=1;entryX=1.012;entryY=0.436;entryDx=0;entryDy=0;entryPerimeter=0;edgeStyle=orthogonalEdgeStyle;rounded=1;exitX=-0.02;exitY=0.5;exitDx=0;exitDy=0;exitPerimeter=0;" edge="1" parent="1" source="Eh-v05lWzU1ELgXKNOy4-8" target="Eh-v05lWzU1ELgXKNOy4-2">
          <mxGeometry width="50" height="50" relative="1" as="geometry">
            <mxPoint x="420" y="440" as="sourcePoint" />
            <mxPoint x="440" y="380" as="targetPoint" />
            <Array as="points">
              <mxPoint x="340" y="470" />
              <mxPoint x="340" y="244" />
            </Array>
          </mxGeometry>
        </mxCell>
        <mxCell id="Eh-v05lWzU1ELgXKNOy4-21" value="" style="endArrow=classic;html=1;exitX=-0.09;exitY=0.475;exitDx=0;exitDy=0;exitPerimeter=0;entryX=-0.051;entryY=0.364;entryDx=0;entryDy=0;entryPerimeter=0;" edge="1" parent="1" source="Eh-v05lWzU1ELgXKNOy4-7" target="Eh-v05lWzU1ELgXKNOy4-2">
          <mxGeometry width="50" height="50" relative="1" as="geometry">
            <mxPoint x="390" y="430" as="sourcePoint" />
            <mxPoint x="440" y="380" as="targetPoint" />
            <Array as="points">
              <mxPoint x="70" y="469" />
              <mxPoint x="70" y="350" />
              <mxPoint x="70" y="240" />
            </Array>
          </mxGeometry>
        </mxCell>
      </root>
    </mxGraphModel>
  </diagram>
</mxfile>
